<?xml version="1.0" encoding="utf-8"?>
<!-- Generator: Adobe Illustrator 27.8.1, SVG Export Plug-In . SVG Version: 6.00 Build 0)  -->
<svg version="1.1" id="Layer_1" xmlns="http://www.w3.org/2000/svg" xmlns:xlink="http://www.w3.org/1999/xlink" x="0px" y="0px"
	 viewBox="0 0 135.89 104.33" style="enable-background:new 0 0 135.89 104.33;" xml:space="preserve">
<style type="text/css">
	.st0{fill:#1475BC;}
	.st1{fill:#242021;}
	.st2{fill:#6D6E71;}
</style>
<path class="st0" d="M53.54,3.56L53.4,9.5c-4.32-0.1-8.26,0.72-11.92,2.43c-3.67,1.74-6.85,4.31-9.59,7.69
	c-3.01,3.69-4.9,7.86-5.65,12.44c-0.79,4.58-0.38,8.99,1.23,13.12c1.61,4.17,4.28,7.76,8.02,10.8c5.69,4.58,11.99,6.46,18.95,5.64
	c6.95-0.82,12.81-4.2,17.61-10.11c4.76-5.88,6.75-12.57,5.93-20.06h6.03c0.34,3.42,0.07,6.87-0.79,10.35
	c-1.2,4.75-3.53,9.29-6.99,13.56c-6.58,8.13-14.49,12.33-23.71,12.68c-7.78,0.24-14.9-2.25-21.38-7.48
	c-6.82-5.5-10.62-12.5-11.41-21.01c-0.79-8.51,1.71-16.37,7.54-23.54c3.53-4.34,7.54-7.55,12.09-9.67
	C43.88,4.21,48.6,3.28,53.54,3.56z"/>
<path class="st1" d="M14.65,75.07l-1.61,1.54c-1.1-1.16-2.36-1.74-3.73-1.74c-1.16,0-2.16,0.41-2.95,1.2
	c-0.79,0.79-1.2,1.78-1.2,2.94c0,0.82,0.17,1.54,0.51,2.15c0.34,0.62,0.86,1.13,1.51,1.47c0.65,0.34,1.37,0.55,2.16,0.55
	c0.69,0,1.3-0.14,1.85-0.38c0.55-0.24,1.16-0.72,1.85-1.37l1.58,1.64c-0.89,0.89-1.75,1.47-2.57,1.81
	c-0.79,0.34-1.71,0.51-2.74,0.51c-1.88,0-3.46-0.61-4.66-1.81c-1.2-1.2-1.82-2.73-1.82-4.61c0-1.2,0.27-2.29,0.82-3.25
	c0.55-0.96,1.34-1.71,2.36-2.29c1.03-0.58,2.12-0.85,3.32-0.85c0.99,0,1.99,0.21,2.91,0.65C13.18,73.67,13.97,74.28,14.65,75.07z"/>
<path class="st1" d="M20.31,75.85c0.86,0,1.64,0.21,2.4,0.65c0.75,0.41,1.34,0.99,1.75,1.74c0.41,0.72,0.62,1.5,0.62,2.36
	c0,0.85-0.21,1.64-0.65,2.39c-0.41,0.75-0.99,1.33-1.71,1.74c-0.72,0.41-1.54,0.61-2.4,0.61c-1.3,0-2.4-0.44-3.32-1.37
	c-0.93-0.92-1.37-2.05-1.37-3.35c0-1.4,0.51-2.56,1.54-3.52C18.08,76.26,19.11,75.85,20.31,75.85z M20.34,77.97
	c-0.72,0-1.3,0.24-1.75,0.72c-0.48,0.48-0.69,1.13-0.69,1.88c0,0.79,0.24,1.4,0.69,1.91c0.45,0.48,1.06,0.72,1.75,0.72
	c0.72,0,1.3-0.24,1.78-0.75c0.48-0.48,0.72-1.13,0.72-1.88c0-0.79-0.24-1.4-0.69-1.88C21.64,78.21,21.06,77.97,20.34,77.97z"/>
<path class="st1" d="M26.54,76.09h2.26v0.92c0.51-0.44,0.99-0.72,1.4-0.89c0.41-0.17,0.86-0.24,1.27-0.24
	c0.89,0,1.64,0.31,2.26,0.92c0.51,0.51,0.79,1.3,0.79,2.36v5.94H32.3v-3.93c0-1.06-0.03-1.78-0.14-2.15
	c-0.1-0.34-0.27-0.61-0.51-0.82c-0.24-0.17-0.55-0.27-0.89-0.27c-0.45,0-0.86,0.14-1.16,0.44c-0.34,0.31-0.55,0.72-0.69,1.26
	c-0.07,0.27-0.1,0.89-0.1,1.81v3.62h-2.26V76.09z"/>
<path class="st1" d="M36.37,76.09h2.26v0.92c0.51-0.44,0.99-0.72,1.4-0.89c0.41-0.17,0.86-0.24,1.27-0.24
	c0.89,0,1.64,0.31,2.26,0.92c0.51,0.51,0.79,1.3,0.79,2.36v5.94h-2.23v-3.93c0-1.06-0.03-1.78-0.14-2.15
	c-0.1-0.34-0.27-0.61-0.51-0.82c-0.24-0.17-0.55-0.27-0.89-0.27c-0.45,0-0.86,0.14-1.16,0.44c-0.34,0.31-0.55,0.72-0.69,1.26
	c-0.07,0.27-0.1,0.89-0.1,1.81v3.62h-2.26V76.09z"/>
<path class="st1" d="M55.22,81.25h-7.26c0.1,0.65,0.38,1.16,0.86,1.54c0.45,0.38,1.03,0.58,1.75,0.58c0.86,0,1.58-0.31,2.19-0.89
	l1.92,0.89c-0.48,0.68-1.06,1.16-1.71,1.5c-0.65,0.31-1.44,0.48-2.36,0.48c-1.4,0-2.57-0.44-3.46-1.33
	c-0.89-0.89-1.34-2.02-1.34-3.35c0-1.37,0.45-2.53,1.34-3.42c0.89-0.92,1.99-1.37,3.32-1.37c1.4,0,2.57,0.44,3.46,1.37
	c0.89,0.92,1.34,2.12,1.34,3.59L55.22,81.25z M52.95,79.48c-0.14-0.51-0.45-0.92-0.89-1.23s-0.96-0.48-1.54-0.48
	c-0.62,0-1.2,0.17-1.64,0.51c-0.31,0.2-0.58,0.61-0.82,1.16h4.9V79.48z"/>
<path class="st1" d="M65.53,77.9l-1.88,1.02c-0.34-0.38-0.72-0.61-1.06-0.79c-0.34-0.14-0.75-0.21-1.23-0.21
	c-0.86,0-1.54,0.24-2.06,0.75s-0.79,1.16-0.79,1.95c0,0.75,0.24,1.4,0.75,1.88c0.51,0.48,1.16,0.72,1.99,0.72
	c1.03,0,1.82-0.34,2.36-1.02l1.78,1.23c-0.96,1.26-2.33,1.88-4.11,1.88c-1.58,0-2.84-0.48-3.73-1.4c-0.89-0.92-1.34-2.05-1.34-3.28
	c0-0.85,0.21-1.67,0.65-2.39s1.06-1.3,1.82-1.74c0.79-0.41,1.64-0.61,2.64-0.61c0.89,0,1.71,0.17,2.4,0.55
	C64.5,76.74,65.08,77.25,65.53,77.9z"/>
<path class="st1" d="M67.45,72.78h2.26v3.31h1.34v1.95h-1.34v7.04h-2.26v-7.04h-1.16v-1.95h1.16V72.78z"/>
<path class="st1" d="M72.79,72.37c0.41,0,0.75,0.14,1.03,0.44c0.27,0.27,0.41,0.65,0.41,1.06c0,0.41-0.14,0.75-0.41,1.02
	c-0.27,0.27-0.62,0.41-0.99,0.41c-0.41,0-0.75-0.14-1.03-0.44c-0.27-0.27-0.41-0.65-0.41-1.06c0-0.41,0.14-0.75,0.41-1.02
	C72.07,72.51,72.38,72.37,72.79,72.37z M71.66,76.09h2.26v8.99h-2.26V76.09z"/>
<path class="st1" d="M75.6,76.09h2.26v0.92c0.51-0.44,0.99-0.72,1.4-0.89c0.41-0.17,0.86-0.24,1.27-0.24c0.89,0,1.64,0.31,2.26,0.92
	c0.51,0.51,0.79,1.3,0.79,2.36v5.94h-2.23v-3.93c0-1.06-0.03-1.78-0.14-2.15c-0.1-0.34-0.27-0.61-0.51-0.82
	c-0.24-0.17-0.55-0.27-0.89-0.27c-0.45,0-0.86,0.14-1.16,0.44c-0.34,0.31-0.55,0.72-0.69,1.26c-0.07,0.27-0.1,0.89-0.1,1.81v3.62
	H75.6V76.09z"/>
<path class="st1" d="M92.08,76.09h2.26v7.72c0,1.54-0.31,2.63-0.93,3.35c-0.82,0.96-2.06,1.47-3.73,1.47c-0.89,0-1.64-0.1-2.23-0.34
	c-0.62-0.21-1.1-0.55-1.54-0.96c-0.41-0.44-0.72-0.96-0.92-1.57h2.5c0.21,0.24,0.51,0.44,0.86,0.58c0.34,0.14,0.75,0.21,1.23,0.21
	c0.62,0,1.1-0.1,1.47-0.27c0.38-0.17,0.62-0.44,0.79-0.72c0.14-0.31,0.24-0.82,0.24-1.54c-0.41,0.41-0.82,0.68-1.27,0.85
	c-0.45,0.17-0.92,0.27-1.47,0.27c-1.2,0-2.23-0.44-3.08-1.3c-0.82-0.85-1.27-1.98-1.27-3.31c0-1.43,0.45-2.56,1.34-3.45
	c0.79-0.79,1.75-1.16,2.88-1.16c0.51,0,0.99,0.1,1.47,0.27c0.45,0.21,0.93,0.51,1.4,0.92V76.09z M89.75,77.97
	c-0.72,0-1.3,0.24-1.78,0.72c-0.48,0.48-0.69,1.09-0.69,1.81c0,0.75,0.24,1.37,0.72,1.85c0.48,0.48,1.06,0.72,1.78,0.72
	c0.69,0,1.27-0.24,1.75-0.72c0.45-0.48,0.69-1.09,0.69-1.85c0-0.75-0.24-1.37-0.69-1.81C91.05,78.21,90.47,77.97,89.75,77.97z"/>
<path class="st1" d="M112.16,74.9l-1.64,1.61c-1.03-1.09-2.23-1.64-3.63-1.64c-1.2,0-2.19,0.41-3.01,1.2
	c-0.82,0.79-1.2,1.74-1.2,2.9c0,1.16,0.41,2.19,1.27,2.97c0.86,0.82,1.88,1.23,3.12,1.23c0.79,0,1.47-0.17,2.02-0.51
	c0.55-0.34,0.99-0.85,1.34-1.57h-3.53v-2.19h6.13v0.51c0,1.06-0.27,2.08-0.82,3.04c-0.55,0.96-1.27,1.67-2.16,2.19
	s-1.92,0.75-3.08,0.75c-1.27,0-2.4-0.27-3.39-0.82c-0.99-0.55-1.78-1.33-2.36-2.36c-0.58-1.03-0.86-2.12-0.86-3.28
	c0-1.61,0.55-3.01,1.61-4.2c1.27-1.4,2.91-2.12,4.93-2.12c1.06,0,2.06,0.21,2.98,0.58C110.65,73.53,111.4,74.11,112.16,74.9z"/>
<path class="st1" d="M113.56,72.92h6.75v2.29h-2.23v9.87h-2.36V75.2h-2.16V72.92z"/>
<path class="st1" d="M125.24,72.92h2.36l4.69,12.16h-2.4l-0.96-2.49h-4.97l-0.99,2.49h-2.4L125.24,72.92z M126.44,76.16l-1.64,4.17
	h3.25L126.44,76.16z"/>
<path class="st1" d="M81.53,8.41c-4.28,0.14-8.36,1.26-12.26,3.42c-4.15,2.29-7.33,5.4-9.59,9.29c-2.26,3.93-3.39,8.06-3.39,12.4
	c0,4.48,1.16,8.71,3.53,12.74c2.36,4.03,5.58,7.17,9.73,9.5c4.15,2.29,8.7,3.45,13.64,3.45c6,0,11.07-1.71,15.21-5.16
	c4.15-3.45,6.61-9.91,7.37-15.41H89.61v-6.94h23.06c-0.07,9.19-3.12,19.68-8.43,25.08c-5.31,5.4-12.37,8.1-21.24,8.1
	c-10.79,0-19.32-3.72-25.59-11.21c-4.83-5.77-7.26-12.44-7.26-19.99c0-5.64,1.37-10.86,4.15-15.72c2.77-4.85,6.58-8.64,11.41-11.38
	c4.69-2.66,9.97-4.03,15.86-4.1L81.53,8.41z"/>
<path class="st2" d="M8.69,95l-0.82,0.79c-0.55-0.58-1.2-0.89-1.88-0.89c-0.58,0-1.1,0.21-1.47,0.61C4.1,95.92,3.9,96.4,3.9,96.98
	c0,0.41,0.1,0.79,0.27,1.09c0.17,0.31,0.45,0.58,0.75,0.75s0.69,0.27,1.1,0.27c0.34,0,0.65-0.07,0.93-0.2
	c0.27-0.14,0.58-0.34,0.93-0.68l0.79,0.82c-0.45,0.44-0.89,0.75-1.3,0.92c-0.41,0.17-0.86,0.27-1.37,0.27
	c-0.96,0-1.75-0.31-2.33-0.92c-0.62-0.61-0.92-1.37-0.92-2.32c0-0.61,0.14-1.16,0.41-1.64c0.27-0.48,0.69-0.85,1.2-1.16
	c0.51-0.27,1.06-0.44,1.68-0.44c0.51,0,0.99,0.1,1.47,0.31C7.94,94.28,8.35,94.59,8.69,95z"/>
<path class="st2" d="M12.53,95.41c0.45,0,0.82,0.1,1.2,0.31c0.38,0.21,0.69,0.51,0.89,0.85c0.21,0.34,0.31,0.75,0.31,1.2
	s-0.1,0.82-0.31,1.2c-0.21,0.38-0.51,0.65-0.86,0.89c-0.34,0.24-0.79,0.31-1.2,0.31c-0.65,0-1.2-0.24-1.68-0.68
	C10.44,99,10.2,98.45,10.2,97.8c0-0.72,0.27-1.3,0.79-1.78C11.4,95.61,11.95,95.41,12.53,95.41z M12.56,96.47
	c-0.34,0-0.65,0.14-0.89,0.38s-0.34,0.55-0.34,0.96c0,0.41,0.1,0.72,0.34,0.96c0.24,0.24,0.51,0.38,0.89,0.38
	c0.34,0,0.65-0.14,0.89-0.38c0.24-0.24,0.34-0.58,0.34-0.96s-0.1-0.72-0.34-0.96C13.21,96.57,12.91,96.47,12.56,96.47z"/>
<path class="st2" d="M16.57,93.77h1.13v6.29h-1.13V93.77z"/>
<path class="st2" d="M19.45,93.77h1.13v6.29h-1.13V93.77z"/>
<path class="st2" d="M25.79,95.51h1.13v4.54h-1.13v-0.48c-0.21,0.21-0.45,0.38-0.69,0.44c-0.24,0.1-0.48,0.14-0.72,0.14
	c-0.58,0-1.1-0.24-1.51-0.68c-0.45-0.44-0.65-1.03-0.65-1.71c0-0.68,0.21-1.26,0.62-1.71c0.41-0.44,0.93-0.68,1.51-0.68
	c0.27,0,0.51,0.07,0.75,0.17c0.24,0.1,0.45,0.27,0.65,0.48v-0.51H25.79z M24.59,96.43c-0.34,0-0.65,0.14-0.89,0.38
	c-0.24,0.24-0.34,0.58-0.34,0.96s0.1,0.72,0.34,0.96c0.24,0.24,0.51,0.38,0.89,0.38c0.34,0,0.65-0.14,0.89-0.38
	c0.24-0.24,0.34-0.58,0.34-0.99c0-0.41-0.1-0.72-0.34-0.96C25.24,96.57,24.96,96.43,24.59,96.43z"/>
<path class="st2" d="M30.04,93.77v2.25c0.21-0.21,0.45-0.38,0.69-0.48c0.24-0.1,0.48-0.17,0.75-0.17c0.58,0,1.1,0.24,1.51,0.68
	c0.41,0.44,0.62,1.02,0.62,1.71c0,0.68-0.21,1.23-0.65,1.71c-0.45,0.44-0.92,0.68-1.51,0.68c-0.27,0-0.51-0.03-0.72-0.14
	c-0.24-0.1-0.45-0.24-0.69-0.44v0.48h-1.13v-6.29H30.04z M31.24,96.43c-0.34,0-0.65,0.14-0.89,0.38C30.1,97.05,30,97.39,30,97.77
	c0,0.41,0.1,0.72,0.34,0.99c0.24,0.27,0.55,0.38,0.89,0.38c0.34,0,0.65-0.14,0.89-0.38c0.24-0.24,0.34-0.58,0.34-0.96
	s-0.1-0.72-0.34-0.96C31.89,96.57,31.58,96.43,31.24,96.43z"/>
<path class="st2" d="M37.5,95.41c0.45,0,0.82,0.1,1.2,0.31c0.38,0.21,0.69,0.51,0.89,0.85c0.21,0.38,0.31,0.75,0.31,1.2
	s-0.1,0.82-0.31,1.2c-0.21,0.38-0.51,0.65-0.86,0.89c-0.34,0.24-0.79,0.31-1.2,0.31c-0.65,0-1.2-0.24-1.68-0.68
	c-0.45-0.48-0.69-1.03-0.69-1.67c0-0.72,0.27-1.3,0.79-1.78C36.37,95.61,36.92,95.41,37.5,95.41z M37.54,96.47
	c-0.34,0-0.65,0.14-0.89,0.38c-0.24,0.24-0.34,0.55-0.34,0.96c0,0.41,0.1,0.72,0.34,0.96c0.24,0.24,0.51,0.38,0.89,0.38
	c0.34,0,0.65-0.14,0.89-0.38c0.24-0.24,0.34-0.58,0.34-0.96s-0.1-0.72-0.34-0.96S37.88,96.47,37.54,96.47z"/>
<path class="st2" d="M41.41,95.51h0.99v0.58c0.1-0.24,0.24-0.41,0.41-0.51c0.17-0.1,0.38-0.17,0.58-0.17c0.14,0,0.31,0.03,0.48,0.1
	l-0.34,0.99c-0.14-0.07-0.24-0.1-0.34-0.1c-0.17,0-0.31,0.1-0.45,0.34c-0.14,0.21-0.17,0.65-0.17,1.26v0.21v1.84h-1.13v-4.54H41.41z
	"/>
<path class="st2" d="M48.57,95.51h1.13v4.54h-1.13v-0.48c-0.21,0.21-0.45,0.38-0.69,0.44c-0.24,0.1-0.48,0.14-0.72,0.14
	c-0.58,0-1.1-0.24-1.51-0.68c-0.45-0.44-0.65-1.03-0.65-1.71c0-0.68,0.21-1.26,0.62-1.71c0.41-0.44,0.93-0.68,1.51-0.68
	c0.27,0,0.51,0.07,0.75,0.17c0.24,0.1,0.45,0.27,0.65,0.48v-0.51H48.57z M47.37,96.43c-0.34,0-0.65,0.14-0.89,0.38
	c-0.24,0.24-0.34,0.58-0.34,0.96s0.1,0.72,0.34,0.96c0.24,0.24,0.51,0.38,0.89,0.38c0.34,0,0.65-0.14,0.89-0.38
	c0.24-0.24,0.34-0.58,0.34-0.99c0-0.41-0.1-0.72-0.34-0.96C48.02,96.57,47.75,96.43,47.37,96.43z"/>
<path class="st2" d="M51.82,93.84h1.13v1.67h0.69v0.99h-0.69v3.55h-1.13V96.5h-0.58v-0.99h0.58V93.84z"/>
<path class="st2" d="M59.64,98.11h-3.67c0.07,0.31,0.21,0.58,0.41,0.75c0.24,0.21,0.51,0.27,0.89,0.27c0.41,0,0.79-0.14,1.1-0.44
	l0.96,0.44c-0.24,0.34-0.51,0.58-0.86,0.75c-0.34,0.17-0.72,0.24-1.2,0.24c-0.72,0-1.3-0.24-1.75-0.68
	c-0.45-0.44-0.69-1.03-0.69-1.67c0-0.68,0.24-1.26,0.69-1.71c0.45-0.44,0.99-0.68,1.68-0.68c0.72,0,1.3,0.24,1.75,0.68
	c0.45,0.44,0.69,1.06,0.69,1.81V98.11z M58.51,97.22c-0.07-0.24-0.24-0.44-0.45-0.61c-0.21-0.17-0.48-0.24-0.79-0.24
	c-0.31,0-0.58,0.1-0.82,0.27c-0.14,0.1-0.27,0.31-0.41,0.58H58.51z"/>
<path class="st2" d="M62,98.86c0.17,0,0.34,0.07,0.48,0.21c0.14,0.14,0.21,0.27,0.21,0.44s-0.07,0.34-0.21,0.48
	c-0.14,0.14-0.27,0.21-0.48,0.21c-0.17,0-0.34-0.07-0.48-0.21c-0.14-0.14-0.21-0.27-0.21-0.48c0-0.17,0.07-0.34,0.21-0.44
	C61.66,98.93,61.83,98.86,62,98.86z"/>
<path class="st2" d="M67.86,93.91h1.16v6.12h-1.16V93.91z"/>
<path class="st2" d="M71.01,95.51h1.13v0.48c0.27-0.21,0.48-0.38,0.72-0.44c0.21-0.1,0.41-0.14,0.65-0.14
	c0.45,0,0.82,0.17,1.13,0.48c0.27,0.27,0.41,0.65,0.41,1.19v3.01h-1.13v-2.02c0-0.55-0.03-0.89-0.07-1.09
	c-0.03-0.17-0.14-0.31-0.24-0.41c-0.14-0.1-0.27-0.14-0.45-0.14c-0.24,0-0.45,0.07-0.58,0.24c-0.14,0.17-0.27,0.38-0.34,0.65
	c-0.03,0.14-0.03,0.44-0.03,0.92v1.81h-1.13v-4.54H71.01z"/>
<path class="st2" d="M79.75,96.16l-0.72,0.72c-0.27-0.27-0.55-0.41-0.79-0.41c-0.14,0-0.24,0.04-0.31,0.07
	c-0.07,0.07-0.1,0.14-0.1,0.21c0,0.07,0.03,0.1,0.07,0.17c0.03,0.07,0.17,0.14,0.34,0.21l0.41,0.21c0.45,0.2,0.75,0.44,0.89,0.65
	c0.14,0.21,0.24,0.48,0.24,0.79c0,0.41-0.14,0.75-0.45,1.03c-0.31,0.27-0.69,0.41-1.2,0.41c-0.65,0-1.2-0.27-1.58-0.79l0.69-0.75
	c0.14,0.17,0.27,0.27,0.48,0.38c0.17,0.1,0.34,0.14,0.48,0.14c0.14,0,0.27-0.03,0.38-0.1s0.14-0.17,0.14-0.24
	c0-0.17-0.17-0.34-0.51-0.51l-0.38-0.21c-0.72-0.38-1.1-0.82-1.1-1.4c0-0.34,0.14-0.65,0.41-0.92c0.27-0.24,0.62-0.38,1.06-0.38
	c0.31,0,0.58,0.07,0.82,0.21C79.33,95.72,79.57,95.89,79.75,96.16z"/>
<path class="st2" d="M82.69,95.51v0.51c0.21-0.21,0.45-0.38,0.69-0.48c0.24-0.1,0.48-0.17,0.75-0.17c0.58,0,1.1,0.24,1.51,0.68
	c0.41,0.44,0.62,1.02,0.62,1.71c0,0.68-0.21,1.23-0.65,1.71c-0.45,0.44-0.93,0.68-1.51,0.68c-0.27,0-0.51-0.03-0.72-0.14
	c-0.24-0.1-0.45-0.24-0.69-0.44v2.15h-1.13v-6.18h1.13V95.51z M83.89,96.43c-0.34,0-0.65,0.14-0.89,0.38
	c-0.24,0.24-0.34,0.58-0.34,0.96c0,0.41,0.1,0.72,0.34,0.99c0.24,0.24,0.55,0.38,0.89,0.38c0.34,0,0.65-0.14,0.89-0.38
	c0.24-0.24,0.34-0.58,0.34-0.96s-0.1-0.72-0.34-0.96C84.54,96.57,84.23,96.43,83.89,96.43z"/>
<path class="st2" d="M88.48,93.63c0.21,0,0.38,0.07,0.51,0.21c0.14,0.14,0.21,0.31,0.21,0.51c0,0.2-0.07,0.38-0.21,0.51
	c-0.14,0.14-0.31,0.21-0.51,0.21c-0.21,0-0.38-0.07-0.51-0.21c-0.14-0.14-0.21-0.31-0.21-0.55c0-0.21,0.07-0.38,0.21-0.51
	C88.1,93.7,88.28,93.63,88.48,93.63z M87.9,95.51h1.13v4.54H87.9V95.51z"/>
<path class="st2" d="M90.64,95.51h0.99v0.58c0.1-0.24,0.24-0.41,0.41-0.51c0.17-0.1,0.38-0.17,0.58-0.17c0.14,0,0.31,0.03,0.48,0.1
	l-0.34,0.99c-0.14-0.07-0.24-0.1-0.34-0.1c-0.17,0-0.31,0.1-0.45,0.34c-0.14,0.21-0.17,0.65-0.17,1.26v0.21v1.84h-1.13v-4.54H90.64z
	"/>
<path class="st2" d="M99,98.11h-3.67c0.07,0.31,0.21,0.58,0.41,0.75c0.24,0.21,0.51,0.27,0.89,0.27c0.41,0,0.79-0.14,1.1-0.44
	l0.96,0.44c-0.24,0.34-0.51,0.58-0.86,0.75s-0.72,0.24-1.2,0.24c-0.72,0-1.3-0.24-1.75-0.68c-0.45-0.44-0.69-1.03-0.69-1.67
	c0-0.68,0.24-1.26,0.69-1.71c0.44-0.44,0.99-0.68,1.68-0.68c0.72,0,1.3,0.24,1.75,0.68C98.76,96.5,99,97.12,99,97.87V98.11z
	 M97.87,97.22c-0.07-0.24-0.24-0.44-0.44-0.61c-0.21-0.17-0.48-0.24-0.79-0.24s-0.58,0.1-0.82,0.27c-0.14,0.1-0.27,0.31-0.41,0.58
	H97.87z"/>
<path class="st2" d="M101.36,98.86c0.17,0,0.34,0.07,0.48,0.21c0.14,0.14,0.2,0.27,0.2,0.44s-0.07,0.34-0.2,0.48
	c-0.14,0.14-0.27,0.21-0.48,0.21c-0.21,0-0.34-0.07-0.48-0.21c-0.14-0.14-0.21-0.27-0.21-0.48c0-0.17,0.07-0.34,0.21-0.44
	C101.02,98.93,101.19,98.86,101.36,98.86z"/>
<path class="st2" d="M107.29,93.91h1.17v5.02h1.71v1.13h-2.88V93.91z"/>
<path class="st2" d="M116.3,98.11h-3.67c0.07,0.31,0.2,0.58,0.41,0.75c0.24,0.21,0.51,0.27,0.89,0.27c0.41,0,0.79-0.14,1.1-0.44
	l0.96,0.44c-0.24,0.34-0.51,0.58-0.86,0.75c-0.34,0.17-0.72,0.24-1.2,0.24c-0.72,0-1.3-0.24-1.75-0.68
	c-0.45-0.44-0.69-1.03-0.69-1.67c0-0.68,0.24-1.26,0.69-1.71c0.45-0.44,0.99-0.68,1.68-0.68c0.72,0,1.3,0.24,1.75,0.68
	c0.45,0.44,0.69,1.06,0.69,1.81V98.11z M115.17,97.22c-0.07-0.24-0.24-0.44-0.44-0.61c-0.21-0.17-0.48-0.24-0.79-0.24
	c-0.31,0-0.58,0.1-0.82,0.27c-0.14,0.1-0.27,0.31-0.41,0.58H115.17z"/>
<path class="st2" d="M121.41,95.51h1.13v4.54h-1.13v-0.48c-0.21,0.21-0.45,0.38-0.68,0.44c-0.24,0.1-0.48,0.14-0.72,0.14
	c-0.58,0-1.1-0.24-1.51-0.68c-0.45-0.44-0.65-1.03-0.65-1.71c0-0.68,0.2-1.26,0.62-1.71c0.41-0.44,0.93-0.68,1.51-0.68
	c0.27,0,0.51,0.07,0.75,0.17c0.24,0.1,0.44,0.27,0.65,0.48v-0.51H121.41z M120.21,96.43c-0.34,0-0.65,0.14-0.89,0.38
	c-0.24,0.24-0.34,0.58-0.34,0.96s0.1,0.72,0.34,0.96c0.24,0.24,0.51,0.38,0.89,0.38c0.34,0,0.65-0.14,0.89-0.38
	c0.24-0.24,0.34-0.58,0.34-0.99c0-0.41-0.1-0.72-0.34-0.96C120.86,96.57,120.58,96.43,120.21,96.43z"/>
<path class="st2" d="M127.88,93.77h1.13v6.29h-1.13v-0.48c-0.21,0.21-0.45,0.38-0.69,0.44c-0.24,0.1-0.48,0.14-0.72,0.14
	c-0.58,0-1.1-0.24-1.51-0.68c-0.45-0.44-0.65-1.03-0.65-1.71c0-0.68,0.21-1.26,0.62-1.71c0.41-0.44,0.93-0.68,1.51-0.68
	c0.27,0,0.51,0.07,0.75,0.17c0.24,0.1,0.45,0.27,0.65,0.48v-2.25H127.88z M126.68,96.43c-0.34,0-0.65,0.14-0.89,0.38
	c-0.24,0.24-0.34,0.58-0.34,0.96s0.1,0.72,0.34,0.96c0.24,0.24,0.51,0.38,0.89,0.38c0.34,0,0.65-0.14,0.89-0.38
	c0.24-0.24,0.34-0.58,0.34-0.99c0-0.41-0.1-0.72-0.34-0.96C127.33,96.57,127.02,96.43,126.68,96.43z"/>
<path class="st2" d="M131.61,98.86c0.17,0,0.34,0.07,0.48,0.21c0.14,0.14,0.21,0.27,0.21,0.44s-0.07,0.34-0.21,0.48
	c-0.14,0.14-0.27,0.21-0.48,0.21c-0.17,0-0.34-0.07-0.48-0.21c-0.14-0.14-0.21-0.27-0.21-0.48c0-0.17,0.07-0.34,0.21-0.44
	C131.27,98.93,131.44,98.86,131.61,98.86z"/>
</svg>
