<?xml version="1.0" encoding="utf-8"?>
<!-- Generator: Adobe Illustrator 28.1.0, SVG Export Plug-In . SVG Version: 6.00 Build 0)  -->
<svg version="1.1" id="Layer_1" xmlns="http://www.w3.org/2000/svg" xmlns:xlink="http://www.w3.org/1999/xlink" x="0px" y="0px"
	 viewBox="0 75 841.9 200" style="enable-background:new 0 0 841.9 353.7;" xml:space="preserve">
<style type="text/css">
	.st0{fill:#005CBE;  }
	.st1{fill:#FFFFFF; stroke: #FFFFFF; }
	.st2{fill:#FFE204; stroke: #FFE204; }
	.st0, .st1, .st2 { stroke-width: 1; }
</style>
<polygon class="st1" points="305.3,164.4 332.4,126.9 308.1,126.9 293.6,148 279.1,126.9 254.9,126.9 282,164.4 249.4,209.5 
	273.5,209.5 293.6,181 313.6,209.5 337.8,209.5 "/>
<path class="st1" d="M225.4,138.4c-5.5-8.7-16.4-13.6-27.8-13.6c-23.3,0-40.3,18.4-40.3,43.3c0,25.6,17.7,43.5,39.8,43.5
	c11.8,0,22.8-6,28.3-15v12.9h20.5v-82.6h-20.5V138.4z M201.4,192.5c-13.4,0-23.5-11.1-23.5-24.4s10.1-24.2,23.3-24.2
	c12.2,0,23.9,10.1,23.9,24.2C225.1,181.9,214.1,192.5,201.4,192.5"/>
<polygon class="st1" points="88.5,87.7 88.5,107 123.3,107 123.3,209.5 144.9,209.5 144.9,107 179.7,107 179.7,87.7 "/>
<polygon class="st2" points="735.5,126.7 735.5,96.3 715,96.3 715,126.7 700.2,126.7 700.2,143 715,143 715,209.3 735.5,209.3 
	735.5,143 753,143 753,126.7 "/>
<path class="st2" d="M664.4,211.4c16.8,0,33.6-9.2,33.6-26c0-7.6-3.4-19.3-21.9-24l-13.3-3.5c-4.8-1.1-8.8-3.5-8.8-7.8
	c0-5.1,4.4-8.8,10.8-8.8c5.8,0,11,3.5,11,9.2h19.6c0.2-18.4-16.4-25.8-31.1-25.8c-18,0-30.8,11.7-30.8,24.6
	c0,10.4,4.8,20.3,23.3,25.3l11,2.8c6.2,1.4,9.7,3.5,9.7,8.1c0,5.3-5.3,9.4-13.4,9.4c-8.7,0-13.6-5.3-13.6-11h-19.3
	C631.5,201.5,647.9,211.4,664.4,211.4"/>
<rect x="603" y="126.7" class="st2" width="20.5" height="82.6"/>
<path class="st2" d="M613.2,112.1c7.1,0,12.6-5,12.6-11.8c0-6.9-5.5-11.8-12.6-11.8c-6.9,0-12.4,5-12.4,11.8
	C600.9,107.1,606.3,112.1,613.2,112.1"/>
<path class="st2" d="M561.2,211.4c16.8,0,33.6-9.2,33.6-26c0-7.6-3.4-19.3-21.9-24l-13.3-3.5c-4.8-1.1-8.8-3.5-8.8-7.8
	c0-5.1,4.4-8.8,10.8-8.8c5.8,0,11,3.5,11,9.2h19.6c0.2-18.4-16.4-25.8-31.1-25.8c-18,0-30.8,11.7-30.8,24.6
	c0,10.4,4.8,20.3,23.3,25.3l11,2.8c6.2,1.4,9.7,3.5,9.7,8.1c0,5.3-5.3,9.4-13.4,9.4c-8.7,0-13.6-5.3-13.6-11H528
	C528.3,201.5,544.8,211.4,561.2,211.4"/>
<path class="st2" d="M489.4,211.4c16.8,0,33.6-9.2,33.6-26c0-7.6-3.4-19.3-21.9-24l-13.3-3.5c-4.8-1.1-8.8-3.5-8.8-7.8
	c0-5.1,4.4-8.8,10.8-8.8c5.8,0,11,3.5,11,9.2h19.6c0.2-18.4-16.4-25.8-31.1-25.8c-18,0-30.8,11.7-30.8,24.6
	c0,10.4,4.8,20.3,23.3,25.3l11,2.8c6.2,1.4,9.7,3.5,9.7,8.1c0,5.3-5.3,9.4-13.4,9.4c-8.7,0-13.6-5.3-13.6-11h-19.3
	C456.5,201.5,472.9,211.4,489.4,211.4"/>
<g>
	<g>
		<g>
			<polygon class="st2" points="457.2,209.3 434.7,209.3 391.7,87.8 414.1,87.8 			"/>
		</g>
		<g>
			<polygon class="st2" points="406.5,156.8 385.9,156.8 396.8,126 374.3,126 363.4,156.8 335.1,156.8 335.1,177.9 355.9,177.9 
				344.8,209.3 367.2,209.3 378.4,177.9 406.5,177.9 			"/>
		</g>
	</g>
</g>
<g>
	<path class="st1" d="M470.9,265.3l-3.2-9.1h-14.5l-3.2,9.1h-7l13.9-37h7.1l13.8,37H470.9z M455.1,250.6h10.6l-5.3-15L455.1,250.6z"
		/>
	<path class="st1" d="M478.6,252.8c0-7.9,6.4-13.1,13.6-13.1c4.3,0,7.9,1.9,10.2,4.8l-4.4,3.5c-1.3-1.6-3.4-2.5-5.7-2.5
		c-4.3,0-7.5,3.1-7.5,7.3c0,4.2,3.1,7.4,7.5,7.4c2.3,0,4.4-1,5.7-2.5l4.4,3.5c-2.3,2.9-5.8,4.8-10.2,4.8
		C485,266,478.6,260.7,478.6,252.8z"/>
	<path class="st1" d="M504.7,252.8c0-7.9,6.4-13.1,13.6-13.1c4.3,0,7.9,1.9,10.2,4.8l-4.4,3.5c-1.3-1.6-3.4-2.5-5.7-2.5
		c-4.3,0-7.5,3.1-7.5,7.3c0,4.2,3.1,7.4,7.5,7.4c2.3,0,4.4-1,5.7-2.5l4.4,3.5c-2.3,2.9-5.8,4.8-10.2,4.8
		C511,266,504.7,260.7,504.7,252.8z"/>
	<path class="st1" d="M530.7,252.8c0-7.9,6.2-13.1,13.3-13.1c7.1,0,13.4,5.2,13.4,13.1c0,7.9-6.2,13.2-13.4,13.2
		C536.9,266,530.7,260.7,530.7,252.8z M551.1,252.8c0-4.3-3.2-7.3-7.1-7.3c-3.9,0-7,3.1-7,7.3c0,4.4,3.2,7.4,7,7.4
		C547.9,260.2,551.1,257.2,551.1,252.8z"/>
	<path class="st1" d="M579.7,240.3h6.2v25h-6.2v-3.9c-1.3,3.2-5.3,4.6-7.8,4.6c-6.4,0-10-4.3-10-11.6v-14.1h6.2v13.8
		c0,4,2.4,6.1,5.2,6.1c2.8,0,6.4-1.6,6.4-6.5V240.3z"/>
	<path class="st1" d="M616.3,251.3v14.1h-6.2v-13.6c0-4-2.4-6.2-5.2-6.2c-2.8,0-6.4,1.7-6.4,6.5v13.3h-6.2v-25h6.2v4
		c1.3-3.2,5.2-4.6,7.8-4.6C612.7,239.7,616.3,244,616.3,251.3z"/>
	<path class="st1" d="M635.9,240.3v4.9h-5.3v20.1h-6.2v-20.1h-4.5v-4.9h4.5v-9.2h6.2v9.2H635.9z"/>
	<path class="st1" d="M658.2,240.3h6.2v25h-6.2v-3.9c-1.7,2.7-5,4.6-8.6,4.6c-6.7,0-12.1-5.4-12.1-13.2c0-7.6,5.1-13.1,12.2-13.1
		c3.4,0,6.8,1.5,8.4,4.1V240.3z M658.1,252.8c0-4.3-3.5-7.3-7.2-7.3c-4,0-7.1,3.3-7.1,7.3c0,4,3.1,7.4,7.1,7.4
		C654.7,260.2,658.1,257,658.1,252.8z"/>
	<path class="st1" d="M694.8,251.3v14.1h-6.2v-13.6c0-4-2.4-6.2-5.2-6.2c-2.8,0-6.4,1.7-6.4,6.5v13.3h-6.2v-25h6.2v4
		c1.3-3.2,5.2-4.6,7.8-4.6C691.2,239.7,694.8,244,694.8,251.3z"/>
	<path class="st1" d="M714.3,240.3v4.9H709v20.1h-6.2v-20.1h-4.5v-4.9h4.5v-9.2h6.2v9.2H714.3z"/>
	<path class="st1" d="M716.1,257.6h5.8c0,1.7,1.5,3.3,4.1,3.3c2.5,0,4.1-1.2,4.1-2.8c0-1.4-1.1-2-3-2.5l-3.3-0.9
		c-5.6-1.5-7.1-4.5-7.1-7.7c0-3.9,3.9-7.5,9.3-7.5c4.5,0,9.5,2.3,9.4,7.8h-6c0-1.7-1.6-2.8-3.3-2.8c-1.9,0-3.3,1.1-3.3,2.7
		c0,1.3,1.2,2,2.7,2.4l4,1.1c5.6,1.4,6.7,5,6.7,7.3c0,5.1-5.1,7.9-10.2,7.9C721.2,266,716.2,263,716.1,257.6z"/>
</g>
</svg>
